<mxfile host="app.diagrams.net" modified="2022-01-27T03:52:00.421Z" agent="5.0 (Macintosh; Intel Mac OS X 10_15_7) AppleWebKit/605.1.15 (KHTML, like Gecko) Version/15.2 Safari/605.1.15" etag="o1be0YdGZT5tCwX-F-Wn" version="16.4.7" type="github">
  <diagram id="C5RBs43oDa-KdzZeNtuy" name="Page-1">
    <mxGraphModel dx="796" dy="550" grid="1" gridSize="10" guides="1" tooltips="1" connect="1" arrows="1" fold="1" page="1" pageScale="1" pageWidth="827" pageHeight="1169" math="0" shadow="0">
      <root>
        <mxCell id="WIyWlLk6GJQsqaUBKTNV-0" />
        <mxCell id="WIyWlLk6GJQsqaUBKTNV-1" parent="WIyWlLk6GJQsqaUBKTNV-0" />
        <mxCell id="Xl-gq7ntKhlf_lV4dRlk-14" style="edgeStyle=orthogonalEdgeStyle;rounded=0;orthogonalLoop=1;jettySize=auto;html=1;entryX=0.5;entryY=0;entryDx=0;entryDy=0;" edge="1" parent="WIyWlLk6GJQsqaUBKTNV-1" source="WIyWlLk6GJQsqaUBKTNV-3" target="Xl-gq7ntKhlf_lV4dRlk-13">
          <mxGeometry relative="1" as="geometry" />
        </mxCell>
        <mxCell id="WIyWlLk6GJQsqaUBKTNV-3" value="START" style="rounded=1;whiteSpace=wrap;html=1;fontSize=12;glass=0;strokeWidth=1;shadow=0;" parent="WIyWlLk6GJQsqaUBKTNV-1" vertex="1">
          <mxGeometry x="160" y="80" width="120" height="40" as="geometry" />
        </mxCell>
        <mxCell id="WIyWlLk6GJQsqaUBKTNV-11" value="END" style="rounded=1;whiteSpace=wrap;html=1;fontSize=12;glass=0;strokeWidth=1;shadow=0;" parent="WIyWlLk6GJQsqaUBKTNV-1" vertex="1">
          <mxGeometry x="160" y="470" width="120" height="40" as="geometry" />
        </mxCell>
        <mxCell id="Xl-gq7ntKhlf_lV4dRlk-4" style="edgeStyle=orthogonalEdgeStyle;rounded=0;orthogonalLoop=1;jettySize=auto;html=1;entryX=0.5;entryY=0;entryDx=0;entryDy=0;" edge="1" parent="WIyWlLk6GJQsqaUBKTNV-1" source="Xl-gq7ntKhlf_lV4dRlk-0" target="Xl-gq7ntKhlf_lV4dRlk-2">
          <mxGeometry relative="1" as="geometry" />
        </mxCell>
        <mxCell id="Xl-gq7ntKhlf_lV4dRlk-0" value="INPUT&lt;br&gt;name" style="shape=parallelogram;perimeter=parallelogramPerimeter;whiteSpace=wrap;html=1;fixedSize=1;" vertex="1" parent="WIyWlLk6GJQsqaUBKTNV-1">
          <mxGeometry x="160" y="260" width="120" height="60" as="geometry" />
        </mxCell>
        <mxCell id="Xl-gq7ntKhlf_lV4dRlk-3" style="edgeStyle=orthogonalEdgeStyle;rounded=0;orthogonalLoop=1;jettySize=auto;html=1;entryX=0.5;entryY=0;entryDx=0;entryDy=0;" edge="1" parent="WIyWlLk6GJQsqaUBKTNV-1" source="Xl-gq7ntKhlf_lV4dRlk-2" target="WIyWlLk6GJQsqaUBKTNV-11">
          <mxGeometry relative="1" as="geometry" />
        </mxCell>
        <mxCell id="Xl-gq7ntKhlf_lV4dRlk-2" value="OUTPUT&lt;br&gt;&lt;span style=&quot;white-space: pre&quot;&gt;&quot;Hello, &quot; + name&lt;/span&gt;" style="shape=parallelogram;perimeter=parallelogramPerimeter;whiteSpace=wrap;html=1;fixedSize=1;" vertex="1" parent="WIyWlLk6GJQsqaUBKTNV-1">
          <mxGeometry x="160" y="360" width="120" height="60" as="geometry" />
        </mxCell>
        <mxCell id="Xl-gq7ntKhlf_lV4dRlk-5" value="ASSUMPTIONS&lt;br&gt;The user&#39;s name is a string" style="text;html=1;strokeColor=none;fillColor=none;align=center;verticalAlign=middle;whiteSpace=wrap;rounded=0;" vertex="1" parent="WIyWlLk6GJQsqaUBKTNV-1">
          <mxGeometry x="20" y="60" width="120" height="80" as="geometry" />
        </mxCell>
        <mxCell id="Xl-gq7ntKhlf_lV4dRlk-15" style="edgeStyle=orthogonalEdgeStyle;rounded=0;orthogonalLoop=1;jettySize=auto;html=1;entryX=0.5;entryY=0;entryDx=0;entryDy=0;" edge="1" parent="WIyWlLk6GJQsqaUBKTNV-1" source="Xl-gq7ntKhlf_lV4dRlk-13" target="Xl-gq7ntKhlf_lV4dRlk-0">
          <mxGeometry relative="1" as="geometry" />
        </mxCell>
        <mxCell id="Xl-gq7ntKhlf_lV4dRlk-13" value="OUTPUT&lt;br&gt;&quot;Please enter your name&quot;" style="shape=parallelogram;perimeter=parallelogramPerimeter;whiteSpace=wrap;html=1;fixedSize=1;" vertex="1" parent="WIyWlLk6GJQsqaUBKTNV-1">
          <mxGeometry x="160" y="160" width="120" height="60" as="geometry" />
        </mxCell>
        <mxCell id="Xl-gq7ntKhlf_lV4dRlk-16" style="edgeStyle=orthogonalEdgeStyle;rounded=0;orthogonalLoop=1;jettySize=auto;html=1;entryX=0.5;entryY=0;entryDx=0;entryDy=0;" edge="1" parent="WIyWlLk6GJQsqaUBKTNV-1" source="Xl-gq7ntKhlf_lV4dRlk-17" target="Xl-gq7ntKhlf_lV4dRlk-24">
          <mxGeometry relative="1" as="geometry" />
        </mxCell>
        <mxCell id="Xl-gq7ntKhlf_lV4dRlk-17" value="START" style="rounded=1;whiteSpace=wrap;html=1;fontSize=12;glass=0;strokeWidth=1;shadow=0;" vertex="1" parent="WIyWlLk6GJQsqaUBKTNV-1">
          <mxGeometry x="380" y="80" width="120" height="40" as="geometry" />
        </mxCell>
        <mxCell id="Xl-gq7ntKhlf_lV4dRlk-18" value="END" style="rounded=1;whiteSpace=wrap;html=1;fontSize=12;glass=0;strokeWidth=1;shadow=0;" vertex="1" parent="WIyWlLk6GJQsqaUBKTNV-1">
          <mxGeometry x="380" y="620" width="120" height="40" as="geometry" />
        </mxCell>
        <mxCell id="Xl-gq7ntKhlf_lV4dRlk-27" style="edgeStyle=orthogonalEdgeStyle;rounded=0;orthogonalLoop=1;jettySize=auto;html=1;entryX=0.5;entryY=0;entryDx=0;entryDy=0;" edge="1" parent="WIyWlLk6GJQsqaUBKTNV-1" source="Xl-gq7ntKhlf_lV4dRlk-20" target="Xl-gq7ntKhlf_lV4dRlk-26">
          <mxGeometry relative="1" as="geometry" />
        </mxCell>
        <mxCell id="Xl-gq7ntKhlf_lV4dRlk-20" value="INPUT&lt;br&gt;age" style="shape=parallelogram;perimeter=parallelogramPerimeter;whiteSpace=wrap;html=1;fixedSize=1;" vertex="1" parent="WIyWlLk6GJQsqaUBKTNV-1">
          <mxGeometry x="380" y="260" width="120" height="60" as="geometry" />
        </mxCell>
        <mxCell id="Xl-gq7ntKhlf_lV4dRlk-23" style="edgeStyle=orthogonalEdgeStyle;rounded=0;orthogonalLoop=1;jettySize=auto;html=1;entryX=0.5;entryY=0;entryDx=0;entryDy=0;" edge="1" parent="WIyWlLk6GJQsqaUBKTNV-1" source="Xl-gq7ntKhlf_lV4dRlk-24" target="Xl-gq7ntKhlf_lV4dRlk-20">
          <mxGeometry relative="1" as="geometry" />
        </mxCell>
        <mxCell id="Xl-gq7ntKhlf_lV4dRlk-24" value="OUTPUT&lt;br&gt;&quot;Please enter your age&quot;" style="shape=parallelogram;perimeter=parallelogramPerimeter;whiteSpace=wrap;html=1;fixedSize=1;" vertex="1" parent="WIyWlLk6GJQsqaUBKTNV-1">
          <mxGeometry x="380" y="160" width="120" height="60" as="geometry" />
        </mxCell>
        <mxCell id="Xl-gq7ntKhlf_lV4dRlk-25" value="ASSUMPTIONS&lt;br&gt;The user&#39;s age is an integer." style="text;html=1;strokeColor=none;fillColor=none;align=center;verticalAlign=middle;whiteSpace=wrap;rounded=0;" vertex="1" parent="WIyWlLk6GJQsqaUBKTNV-1">
          <mxGeometry x="540" y="60" width="120" height="80" as="geometry" />
        </mxCell>
        <mxCell id="Xl-gq7ntKhlf_lV4dRlk-36" style="edgeStyle=orthogonalEdgeStyle;rounded=0;orthogonalLoop=1;jettySize=auto;html=1;entryX=0.5;entryY=0;entryDx=0;entryDy=0;" edge="1" parent="WIyWlLk6GJQsqaUBKTNV-1" source="Xl-gq7ntKhlf_lV4dRlk-26" target="Xl-gq7ntKhlf_lV4dRlk-35">
          <mxGeometry relative="1" as="geometry" />
        </mxCell>
        <mxCell id="Xl-gq7ntKhlf_lV4dRlk-40" style="edgeStyle=orthogonalEdgeStyle;rounded=0;orthogonalLoop=1;jettySize=auto;html=1;entryX=0;entryY=0.5;entryDx=0;entryDy=0;" edge="1" parent="WIyWlLk6GJQsqaUBKTNV-1" source="Xl-gq7ntKhlf_lV4dRlk-26" target="Xl-gq7ntKhlf_lV4dRlk-34">
          <mxGeometry relative="1" as="geometry" />
        </mxCell>
        <mxCell id="Xl-gq7ntKhlf_lV4dRlk-26" value="if age &amp;lt; 25" style="rhombus;whiteSpace=wrap;html=1;" vertex="1" parent="WIyWlLk6GJQsqaUBKTNV-1">
          <mxGeometry x="400" y="360" width="80" height="80" as="geometry" />
        </mxCell>
        <mxCell id="Xl-gq7ntKhlf_lV4dRlk-33" value="Yes" style="text;html=1;strokeColor=none;fillColor=none;align=center;verticalAlign=middle;whiteSpace=wrap;rounded=0;" vertex="1" parent="WIyWlLk6GJQsqaUBKTNV-1">
          <mxGeometry x="430" y="430" width="60" height="30" as="geometry" />
        </mxCell>
        <mxCell id="Xl-gq7ntKhlf_lV4dRlk-42" style="edgeStyle=orthogonalEdgeStyle;rounded=0;orthogonalLoop=1;jettySize=auto;html=1;entryX=1.006;entryY=0.653;entryDx=0;entryDy=0;entryPerimeter=0;" edge="1" parent="WIyWlLk6GJQsqaUBKTNV-1" source="Xl-gq7ntKhlf_lV4dRlk-34" target="Xl-gq7ntKhlf_lV4dRlk-18">
          <mxGeometry relative="1" as="geometry">
            <Array as="points">
              <mxPoint x="590" y="646" />
            </Array>
          </mxGeometry>
        </mxCell>
        <mxCell id="Xl-gq7ntKhlf_lV4dRlk-34" value="OUTPUT&lt;br&gt;&quot;You&#39;re old&quot;" style="shape=parallelogram;perimeter=parallelogramPerimeter;whiteSpace=wrap;html=1;fixedSize=1;" vertex="1" parent="WIyWlLk6GJQsqaUBKTNV-1">
          <mxGeometry x="530" y="370" width="120" height="60" as="geometry" />
        </mxCell>
        <mxCell id="Xl-gq7ntKhlf_lV4dRlk-37" style="edgeStyle=orthogonalEdgeStyle;rounded=0;orthogonalLoop=1;jettySize=auto;html=1;entryX=0.5;entryY=0;entryDx=0;entryDy=0;" edge="1" parent="WIyWlLk6GJQsqaUBKTNV-1" source="Xl-gq7ntKhlf_lV4dRlk-35" target="Xl-gq7ntKhlf_lV4dRlk-18">
          <mxGeometry relative="1" as="geometry" />
        </mxCell>
        <mxCell id="Xl-gq7ntKhlf_lV4dRlk-35" value="OUTPUT&lt;br&gt;&quot;You&#39;re cool&quot;" style="shape=parallelogram;perimeter=parallelogramPerimeter;whiteSpace=wrap;html=1;fixedSize=1;" vertex="1" parent="WIyWlLk6GJQsqaUBKTNV-1">
          <mxGeometry x="380" y="480" width="120" height="60" as="geometry" />
        </mxCell>
        <mxCell id="Xl-gq7ntKhlf_lV4dRlk-41" value="No" style="text;html=1;strokeColor=none;fillColor=none;align=center;verticalAlign=middle;whiteSpace=wrap;rounded=0;" vertex="1" parent="WIyWlLk6GJQsqaUBKTNV-1">
          <mxGeometry x="490" y="360" width="60" height="30" as="geometry" />
        </mxCell>
      </root>
    </mxGraphModel>
  </diagram>
</mxfile>
